<svg version="1.1" id="Layer_1" xmlns:x="ns_extend;" xmlns:i="ns_ai;" xmlns:graph="ns_graphs;" xmlns="http://www.w3.org/2000/svg" xmlns:xlink="http://www.w3.org/1999/xlink" x="0px" y="0px" viewBox="0 0 141.8 56" style="enable-background:new 0 0 141.8 56;" xml:space="preserve">
 <style type="text/css">
  .st0{fill:#FFFFFF;}
 </style>
 <metadata>
  <sfw xmlns="ns_sfw;">
   <slices>
   </slices>
   <sliceSourceBounds bottomLeftOrigin="true" height="56" width="141.8" x="2386.8" y="-84.9">
   </sliceSourceBounds>
  </sfw>
 </metadata>
 <g>
  <path class="st0" d="M8.1,10.7H0v32.8h8.1V10.7z">
  </path>
  <path class="st0" d="M33.6,12.6c0-7-5.7-12.6-12.6-12.6H0v7h19.9c3.2,0,5.8,2.5,5.8,5.5c0,1.5-0.5,3-1.6,4.1
		c-1.1,1.1-2.5,1.7-4,1.7h-7.8c-0.3,0-0.5,0.2-0.5,0.5V25c0,0.1,0,0.2,0.1,0.3l13.2,18.3h9.6L21.6,25.2
		C28.2,24.9,33.6,19.3,33.6,12.6z">
  </path>
  <path class="st0" d="M80.4,13.4c0,8.1-5.7,13.4-14.4,13.4H54.7v16.7h-5.4V0H66C74.7,0,80.4,5.2,80.4,13.4z M65.5,21.8
		c5.7,0,9.4-3.3,9.4-8.5S71.3,5,65.6,5H54.7v16.9H65.5z">
  </path>
  <path class="st0" d="M81.8,34.7c0-6.3,4.4-9.9,12.8-9.9h9.3v-2.2c0-4.1-2.9-6.6-7.9-6.6c-4.5,0-7.5,2.1-8.1,5.3h-5.1
		c0.7-6.2,5.8-9.9,13.4-9.9c8.1,0,12.8,4,12.8,11.4v20.7h-4.4l-0.4-5c-2,2.9-5.2,5.3-10.6,5.3C86.5,43.9,81.8,40.4,81.8,34.7z
		 M93.9,39.6c6.3,0,10-3.7,10-9v-1.6h-9.8c-4.5,0-7.1,1.7-7.1,5.3C87,37.5,89.7,39.6,93.9,39.6z">
  </path>
  <path class="st0" d="M117.1,11.8l9.8,25.3l9.5-25.3h5.4l-14.6,37.1c-2,5.1-3.2,7.1-7.7,7.1h-6.1v-4.7h4.5c2.9,0,3.4-0.7,4.6-3.7
		l1.6-3.9l-12.4-31.9L117.1,11.8z">
  </path>
 </g>
</svg>